<?xml version="1.0" encoding="utf-8"?>
<!-- Generator: Adobe Illustrator 24.0.1, SVG Export Plug-In . SVG Version: 6.00 Build 0)  -->
<svg version="1.1" id="图层_1" xmlns="http://www.w3.org/2000/svg" xmlns:xlink="http://www.w3.org/1999/xlink" x="0px" y="0px"
	 viewBox="0 0 200 200" style="enable-background:new 0 0 200 200;" xml:space="preserve">
<path d="M186.3,63.2c1.6-2.3,1-5.4-1.2-7c-2.3-1.6-5.4-1-7,1.2c-2.8,3.9-5,8.2-6.8,12.6c-6.8,17.4-3.2,32.2,0,45.2
	c2.3,9.5,4.3,17.7,2.1,25.4c-1.6,5.2-11.9,22.6-34.2,24c0.5-0.5,1-1,1.5-1.6c0.3-0.3,0.6-0.5,1-0.7c14-11.6,21.1-28.8,21.1-51.1
	c0-21.9-7-41.9-18.4-57c0,0,0,0,0-0.1c-1.2-6.2-2.8-12.3-5-18.2c-1.7-4.5-3.7-9.3-8-12c-3.7-2.2-7.6-1.6-10.3,1.8
	c-1.6,2.1-3.4,3.8-4.8,5.7c-7.6-3.3-15.8-5.1-24.3-5.1c-15.1,0-29,5.7-40.5,15.3c-0.8-0.8-1.9-1.4-3.3-1.4c-5-0.3-13.7-2.7-16.6,3.1
	c-1.3,2.5-0.9,5.6-0.9,8.3c0,3.8,0,7.6,0,11.4c0,1.4,0.5,2.5,1.2,3.3c-6.8,13-10.8,28.4-10.8,44.8c0,22.3,7.1,39.5,21.1,51.1
	c12.1,10.1,29.3,15.4,49.7,15.4c11,0,21.1-1.6,30-4.6c0,0,0,0,0,0c5.2,1.2,9.9,1.7,14.3,1.7c13.1,0,22.7-4.4,29.1-8.8
	c10.2-7,15.8-16.5,17.6-22.4c3-10.3,0.6-20.2-1.9-30.6c-3-12.2-6.1-24.8-0.4-39.2C182,70,183.9,66.5,186.3,63.2z M127.5,34.2
	c0.1,0,0.1,0.1,0.2,0.1c0.3,1.1,1.2,2.4,1.6,3.5c0.3,0.7,0.6,1.4,0.8,2.1c-1.7-1.3-3.4-2.5-5.2-3.7
	C125.7,35.6,126.8,34.9,127.5,34.2z M40.7,49.9c0.2,0,0.4,0,0.6,0c0.6,0,1.1,0.1,1.7,0.1c-0.8,0.9-1.6,1.9-2.4,2.8
	C40.7,51.8,40.7,50.9,40.7,49.9z M91.9,36.4c33.5,0,60.8,33.5,60.8,74.8c0,0,0,0.1,0,0.1c-1.7-2.4-3.8-4.5-6.5-6.3
	c-19.1-12.2-44-17.6-66.5-15.6c-11.6,1.1-24.6,4.3-33.5,12.3c-4.2,3.8-6.6,8.9-8.7,14c-1.7,4.1-3.3,8.1-4.5,12.3
	c-1.1-5-1.8-10.6-1.8-16.9C31.2,69.9,58.4,36.4,91.9,36.4z"/>
</svg>
